<svg width="300" height="300" viewBox="0 0 300 300" xmlns="http://www.w3.org/2000/svg" fill="none">
  <!-- Chip outline -->
  <rect x="90" y="60" width="120" height="120" rx="16" stroke="black" stroke-width="8"/>

  <!-- Chip pins -->
  <g stroke="black" stroke-width="8">
    <!-- Left side pins -->
    <line x1="82" y1="70" x2="60" y2="70"/>
    <line x1="82" y1="100" x2="60" y2="100"/>
    <line x1="82" y1="130" x2="60" y2="130"/>
    <line x1="82" y1="160" x2="60" y2="160"/>
    
    <!-- Right side pins -->
    <line x1="218" y1="70" x2="240" y2="70"/>
    <line x1="218" y1="100" x2="240" y2="100"/>
    <line x1="218" y1="130" x2="240" y2="130"/>
    <line x1="218" y1="160" x2="240" y2="160"/>

    <!-- Top pins -->
    <line x1="100" y1="52" x2="100" y2="30"/>
    <line x1="130" y1="52" x2="130" y2="30"/>
    <line x1="160" y1="52" x2="160" y2="30"/>
    <line x1="190" y1="52" x2="190" y2="30"/>

    <!-- Bottom pins -->
    <line x1="100" y1="188" x2="100" y2="210"/>
    <line x1="130" y1="188" x2="130" y2="210"/>
    <line x1="160" y1="188" x2="160" y2="210"/>
    <line x1="190" y1="188" x2="190" y2="210"/>
  </g>

  <!-- Centered and adjusted number 8 -->
  <text x="150" y="125" text-anchor="middle" dominant-baseline="middle" font-size="80" font-family="monospace" fill="black">8</text>

  <!-- Project Name -->
  <text x="150" y="250" text-anchor="middle" font-size="32" font-family="sans-serif" fill="black" font-weight="bold">HACHI</text>
  <text x="150" y="275" text-anchor="middle" font-size="16" font-family="sans-serif" fill="black">CHIP-8 EMULATOR</text>
</svg>
